<svg xmlns="http://www.w3.org/2000/svg" viewBox="0 0 680 400" width="680" height="400" font-family="ui-sans-serif,system-ui,sans-serif">
<style>
svg{--bg:#ffffff;--fg:#1a1a1a;--muted:#666;--grid:#e8e8e8;--axis:#bbb}
@media (prefers-color-scheme:dark){svg{--bg:#111;--fg:#e8e8e8;--muted:#999;--grid:#2a2a2a;--axis:#444}}
</style>
<rect width="680" height="400" fill="var(--bg)"/>
<text x="64" y="26" font-size="14" font-weight="600" fill="var(--fg)">Recall vs attack intensity — how loud must an attack be?</text>
<line x1="64" y1="348.00" x2="656" y2="348.00" stroke="var(--grid)" stroke-width="1"/>
<text x="58" y="351.00" font-size="10" text-anchor="end" fill="var(--muted)">0</text>
<line x1="64" y1="287.20" x2="656" y2="287.20" stroke="var(--grid)" stroke-width="1"/>
<text x="58" y="290.20" font-size="10" text-anchor="end" fill="var(--muted)">0.20</text>
<line x1="64" y1="226.40" x2="656" y2="226.40" stroke="var(--grid)" stroke-width="1"/>
<text x="58" y="229.40" font-size="10" text-anchor="end" fill="var(--muted)">0.40</text>
<line x1="64" y1="165.60" x2="656" y2="165.60" stroke="var(--grid)" stroke-width="1"/>
<text x="58" y="168.60" font-size="10" text-anchor="end" fill="var(--muted)">0.60</text>
<line x1="64" y1="104.80" x2="656" y2="104.80" stroke="var(--grid)" stroke-width="1"/>
<text x="58" y="107.80" font-size="10" text-anchor="end" fill="var(--muted)">0.80</text>
<line x1="64" y1="44.00" x2="656" y2="44.00" stroke="var(--grid)" stroke-width="1"/>
<text x="58" y="47.00" font-size="10" text-anchor="end" fill="var(--muted)">1</text>
<line x1="64.00" y1="44" x2="64.00" y2="348" stroke="var(--grid)" stroke-width="1"/>
<text x="64.00" y="364" font-size="10" text-anchor="middle" fill="var(--muted)">0</text>
<line x1="182.40" y1="44" x2="182.40" y2="348" stroke="var(--grid)" stroke-width="1"/>
<text x="182.40" y="364" font-size="10" text-anchor="middle" fill="var(--muted)">0.20</text>
<line x1="300.80" y1="44" x2="300.80" y2="348" stroke="var(--grid)" stroke-width="1"/>
<text x="300.80" y="364" font-size="10" text-anchor="middle" fill="var(--muted)">0.40</text>
<line x1="419.20" y1="44" x2="419.20" y2="348" stroke="var(--grid)" stroke-width="1"/>
<text x="419.20" y="364" font-size="10" text-anchor="middle" fill="var(--muted)">0.60</text>
<line x1="537.60" y1="44" x2="537.60" y2="348" stroke="var(--grid)" stroke-width="1"/>
<text x="537.60" y="364" font-size="10" text-anchor="middle" fill="var(--muted)">0.80</text>
<line x1="656.00" y1="44" x2="656.00" y2="348" stroke="var(--grid)" stroke-width="1"/>
<text x="656.00" y="364" font-size="10" text-anchor="middle" fill="var(--muted)">1</text>
<rect x="64" y="44" width="592" height="304" fill="none" stroke="var(--axis)" stroke-width="1"/>
<polyline points="93.60,172.00 152.80,189.67 212.00,169.79 271.20,232.19 330.40,225.80 389.60,164.95 448.80,171.73 508.00,188.52 567.20,250.49 626.40,250.54" fill="none" stroke="#2563eb" stroke-width="2.4" stroke-linejoin="round"/>
<circle cx="93.60" cy="172.00" r="4.5" fill="#059669" stroke="var(--bg)" stroke-width="1.5"/>
<circle cx="152.80" cy="189.67" r="4.5" fill="#059669" stroke="var(--bg)" stroke-width="1.5"/>
<circle cx="212.00" cy="169.79" r="4.5" fill="#059669" stroke="var(--bg)" stroke-width="1.5"/>
<circle cx="271.20" cy="232.19" r="4.5" fill="#059669" stroke="var(--bg)" stroke-width="1.5"/>
<circle cx="330.40" cy="225.80" r="4.5" fill="#059669" stroke="var(--bg)" stroke-width="1.5"/>
<circle cx="389.60" cy="164.95" r="4.5" fill="#059669" stroke="var(--bg)" stroke-width="1.5"/>
<circle cx="448.80" cy="171.73" r="4.5" fill="#059669" stroke="var(--bg)" stroke-width="1.5"/>
<circle cx="508.00" cy="188.52" r="4.5" fill="#059669" stroke="var(--bg)" stroke-width="1.5"/>
<circle cx="567.20" cy="250.49" r="4.5" fill="#059669" stroke="var(--bg)" stroke-width="1.5"/>
<circle cx="626.40" cy="250.54" r="4.5" fill="#059669" stroke="var(--bg)" stroke-width="1.5"/>
<polyline points="123.20,348.00 123.20,44.00" fill="none" stroke="#dc2626" stroke-width="1.5" stroke-dasharray="4 4" stroke-linejoin="round"/>
<circle cx="123.20" cy="272.00" r="4.5" fill="#dc2626" stroke="var(--bg)" stroke-width="1.5"/>
<text x="131.20" y="265.00" font-size="11" fill="#dc2626">knee</text>
<line x1="506.00" y1="54.00" x2="524.00" y2="54.00" stroke="#2563eb" stroke-width="2.5"/>
<text x="530.00" y="58.00" font-size="11" fill="var(--fg)">recall</text>
<text x="360.0" y="390" font-size="11" text-anchor="middle" fill="var(--muted)">attack intensity</text>
<text transform="translate(16,196.0) rotate(-90)" font-size="11" text-anchor="middle" fill="var(--muted)">recall</text>
</svg>
