<svg xmlns="http://www.w3.org/2000/svg" viewBox="0 0 520 460" width="520" height="460" font-family="ui-sans-serif,system-ui,sans-serif">
<style>
svg{--bg:#ffffff;--fg:#1a1a1a;--muted:#666;--grid:#e8e8e8;--axis:#bbb}
@media (prefers-color-scheme:dark){svg{--bg:#111;--fg:#e8e8e8;--muted:#999;--grid:#2a2a2a;--axis:#444}}
</style>
<rect width="520" height="460" fill="var(--bg)"/>
<text x="64" y="26" font-size="14" font-weight="600" fill="var(--fg)">Calibration: predicted vs observed fraud rate</text>
<line x1="64" y1="408.00" x2="496" y2="408.00" stroke="var(--grid)" stroke-width="1"/>
<text x="58" y="411.00" font-size="10" text-anchor="end" fill="var(--muted)">0</text>
<line x1="64" y1="335.20" x2="496" y2="335.20" stroke="var(--grid)" stroke-width="1"/>
<text x="58" y="338.20" font-size="10" text-anchor="end" fill="var(--muted)">0.23</text>
<line x1="64" y1="262.40" x2="496" y2="262.40" stroke="var(--grid)" stroke-width="1"/>
<text x="58" y="265.40" font-size="10" text-anchor="end" fill="var(--muted)">0.46</text>
<line x1="64" y1="189.60" x2="496" y2="189.60" stroke="var(--grid)" stroke-width="1"/>
<text x="58" y="192.60" font-size="10" text-anchor="end" fill="var(--muted)">0.69</text>
<line x1="64" y1="116.80" x2="496" y2="116.80" stroke="var(--grid)" stroke-width="1"/>
<text x="58" y="119.80" font-size="10" text-anchor="end" fill="var(--muted)">0.92</text>
<line x1="64" y1="44.00" x2="496" y2="44.00" stroke="var(--grid)" stroke-width="1"/>
<text x="58" y="47.00" font-size="10" text-anchor="end" fill="var(--muted)">1.15</text>
<line x1="64.00" y1="44" x2="64.00" y2="408" stroke="var(--grid)" stroke-width="1"/>
<text x="64.00" y="424" font-size="10" text-anchor="middle" fill="var(--muted)">0</text>
<line x1="150.40" y1="44" x2="150.40" y2="408" stroke="var(--grid)" stroke-width="1"/>
<text x="150.40" y="424" font-size="10" text-anchor="middle" fill="var(--muted)">0.23</text>
<line x1="236.80" y1="44" x2="236.80" y2="408" stroke="var(--grid)" stroke-width="1"/>
<text x="236.80" y="424" font-size="10" text-anchor="middle" fill="var(--muted)">0.46</text>
<line x1="323.20" y1="44" x2="323.20" y2="408" stroke="var(--grid)" stroke-width="1"/>
<text x="323.20" y="424" font-size="10" text-anchor="middle" fill="var(--muted)">0.69</text>
<line x1="409.60" y1="44" x2="409.60" y2="408" stroke="var(--grid)" stroke-width="1"/>
<text x="409.60" y="424" font-size="10" text-anchor="middle" fill="var(--muted)">0.92</text>
<line x1="496.00" y1="44" x2="496.00" y2="408" stroke="var(--grid)" stroke-width="1"/>
<text x="496.00" y="424" font-size="10" text-anchor="middle" fill="var(--muted)">1.15</text>
<rect x="64" y="44" width="432" height="364" fill="none" stroke="var(--axis)" stroke-width="1"/>
<polyline points="64.00,408.00 496.00,44.00" fill="none" stroke="#94a3b8" stroke-width="1.5" stroke-dasharray="5 4" stroke-linejoin="round"/>
<polyline points="64.77,405.75 115.36,354.80 149.48,324.79 197.26,286.06 227.29,222.63 268.40,154.93 312.03,151.21 346.14,121.13 383.14,100.02 435.64,91.48" fill="none" stroke="#2563eb" stroke-width="2.2" stroke-linejoin="round"/>
<circle cx="64.77" cy="405.75" r="4.5" fill="#059669" stroke="var(--bg)" stroke-width="1.5"/>
<circle cx="115.36" cy="354.80" r="4.5" fill="#059669" stroke="var(--bg)" stroke-width="1.5"/>
<circle cx="149.48" cy="324.79" r="4.5" fill="#059669" stroke="var(--bg)" stroke-width="1.5"/>
<circle cx="197.26" cy="286.06" r="4.5" fill="#059669" stroke="var(--bg)" stroke-width="1.5"/>
<circle cx="227.29" cy="222.63" r="4.5" fill="#059669" stroke="var(--bg)" stroke-width="1.5"/>
<circle cx="268.40" cy="154.93" r="4.5" fill="#059669" stroke="var(--bg)" stroke-width="1.5"/>
<circle cx="312.03" cy="151.21" r="4.5" fill="#059669" stroke="var(--bg)" stroke-width="1.5"/>
<circle cx="346.14" cy="121.13" r="4.5" fill="#059669" stroke="var(--bg)" stroke-width="1.5"/>
<circle cx="383.14" cy="100.02" r="4.5" fill="#059669" stroke="var(--bg)" stroke-width="1.5"/>
<circle cx="435.64" cy="91.48" r="4.5" fill="#059669" stroke="var(--bg)" stroke-width="1.5"/>
<line x1="346.00" y1="54.00" x2="364.00" y2="54.00" stroke="#2563eb" stroke-width="2.5"/>
<text x="370.00" y="58.00" font-size="11" fill="var(--fg)">observed</text>
<line x1="346.00" y1="70.00" x2="364.00" y2="70.00" stroke="#94a3b8" stroke-width="2.5" stroke-dasharray="5 4"/>
<text x="370.00" y="74.00" font-size="11" fill="var(--fg)">perfect</text>
<text x="280.0" y="450" font-size="11" text-anchor="middle" fill="var(--muted)">predicted probability</text>
<text transform="translate(16,226.0) rotate(-90)" font-size="11" text-anchor="middle" fill="var(--muted)">observed fraud rate</text>
</svg>
