<svg xmlns="http://www.w3.org/2000/svg" viewBox="0 0 680 420" width="680" height="420" font-family="ui-sans-serif,system-ui,sans-serif">
<style>
svg{--bg:#ffffff;--fg:#1a1a1a;--muted:#666;--grid:#e8e8e8;--axis:#bbb}
@media (prefers-color-scheme:dark){svg{--bg:#111;--fg:#e8e8e8;--muted:#999;--grid:#2a2a2a;--axis:#444}}
</style>
<rect width="680" height="420" fill="var(--bg)"/>
<text x="64" y="26" font-size="14" font-weight="600" fill="var(--fg)">What each threshold buys, and what it costs</text>
<line x1="64" y1="368.00" x2="656" y2="368.00" stroke="var(--grid)" stroke-width="1"/>
<text x="58" y="371.00" font-size="10" text-anchor="end" fill="var(--muted)">0</text>
<line x1="64" y1="303.20" x2="656" y2="303.20" stroke="var(--grid)" stroke-width="1"/>
<text x="58" y="306.20" font-size="10" text-anchor="end" fill="var(--muted)">0.20</text>
<line x1="64" y1="238.40" x2="656" y2="238.40" stroke="var(--grid)" stroke-width="1"/>
<text x="58" y="241.40" font-size="10" text-anchor="end" fill="var(--muted)">0.40</text>
<line x1="64" y1="173.60" x2="656" y2="173.60" stroke="var(--grid)" stroke-width="1"/>
<text x="58" y="176.60" font-size="10" text-anchor="end" fill="var(--muted)">0.60</text>
<line x1="64" y1="108.80" x2="656" y2="108.80" stroke="var(--grid)" stroke-width="1"/>
<text x="58" y="111.80" font-size="10" text-anchor="end" fill="var(--muted)">0.80</text>
<line x1="64" y1="44.00" x2="656" y2="44.00" stroke="var(--grid)" stroke-width="1"/>
<text x="58" y="47.00" font-size="10" text-anchor="end" fill="var(--muted)">1</text>
<line x1="64.00" y1="44" x2="64.00" y2="368" stroke="var(--grid)" stroke-width="1"/>
<text x="64.00" y="384" font-size="10" text-anchor="middle" fill="var(--muted)">0</text>
<line x1="182.40" y1="44" x2="182.40" y2="368" stroke="var(--grid)" stroke-width="1"/>
<text x="182.40" y="384" font-size="10" text-anchor="middle" fill="var(--muted)">0.20</text>
<line x1="300.80" y1="44" x2="300.80" y2="368" stroke="var(--grid)" stroke-width="1"/>
<text x="300.80" y="384" font-size="10" text-anchor="middle" fill="var(--muted)">0.40</text>
<line x1="419.20" y1="44" x2="419.20" y2="368" stroke="var(--grid)" stroke-width="1"/>
<text x="419.20" y="384" font-size="10" text-anchor="middle" fill="var(--muted)">0.60</text>
<line x1="537.60" y1="44" x2="537.60" y2="368" stroke="var(--grid)" stroke-width="1"/>
<text x="537.60" y="384" font-size="10" text-anchor="middle" fill="var(--muted)">0.80</text>
<line x1="656.00" y1="44" x2="656.00" y2="368" stroke="var(--grid)" stroke-width="1"/>
<text x="656.00" y="384" font-size="10" text-anchor="middle" fill="var(--muted)">1</text>
<rect x="64" y="44" width="592" height="324" fill="none" stroke="var(--axis)" stroke-width="1"/>
<polyline points="64.00,44.00 69.92,188.36 75.84,188.36 81.76,188.36 87.68,188.36 93.60,188.97 99.52,195.12 105.44,199.42 111.36,203.73 117.28,208.89 123.20,213.19 129.12,216.51 135.04,220.69 140.96,225.00 146.88,231.64 152.80,235.08 158.72,237.42 164.64,243.07 170.56,249.84 176.48,255.37 182.40,261.52 188.32,267.05 194.24,271.72 200.16,277.75 206.08,282.79 212.00,287.83 217.92,294.10 223.84,299.14 229.76,305.78 235.68,310.95 241.60,315.13 247.52,321.03 253.44,331.97 259.36,337.87 265.28,344.39 271.20,351.52 277.12,358.16 283.04,361.85 288.96,367.39 294.88,367.88 300.80,367.88 306.72,367.88 312.64,367.88 318.56,367.88 324.48,367.88 330.40,367.88 336.32,367.88 342.24,367.88 348.16,367.88 354.08,367.88 360.00,367.88 365.92,367.88 371.84,367.88 377.76,367.88 383.68,368.00 389.60,368.00 395.52,368.00 401.44,368.00 407.36,368.00 413.28,368.00 419.20,368.00 425.12,368.00 431.04,368.00 436.96,368.00 442.88,368.00 448.80,368.00 454.72,368.00 460.64,368.00 466.56,368.00 472.48,368.00 478.40,368.00 484.32,368.00 490.24,368.00 496.16,368.00 502.08,368.00 508.00,368.00 513.92,368.00 519.84,368.00 525.76,368.00 531.68,368.00 537.60,368.00 543.52,368.00 549.44,368.00 555.36,368.00 561.28,368.00 567.20,368.00 573.12,368.00 579.04,368.00 584.96,368.00 590.88,368.00 596.80,368.00 602.72,368.00 608.64,368.00 614.56,368.00 620.48,368.00 626.40,368.00 632.32,368.00 638.24,368.00 644.16,368.00 650.08,368.00 656.00,368.00" fill="none" stroke="#2563eb" stroke-width="2.2" stroke-linejoin="round"/>
<polyline points="64.00,44.00 69.92,347.99 75.84,347.99 81.76,347.99 87.68,347.99 93.60,348.20 99.52,349.46 105.44,351.17 111.36,352.87 117.28,354.82 123.20,356.29 129.12,357.70 135.04,358.95 140.96,359.95 146.88,360.87 152.80,361.56 158.72,362.28 164.64,362.76 170.56,363.28 176.48,363.76 182.40,364.21 188.32,364.55 194.24,364.87 200.16,365.12 206.08,365.44 212.00,365.72 217.92,366.03 223.84,366.51 229.76,366.86 235.68,367.11 241.60,367.35 247.52,367.44 253.44,367.62 259.36,367.76 265.28,367.80 271.20,367.82 277.12,367.98 283.04,367.99 288.96,368.00 294.88,368.00 300.80,368.00 306.72,368.00 312.64,368.00 318.56,368.00 324.48,368.00 330.40,368.00 336.32,368.00 342.24,368.00 348.16,368.00 354.08,368.00 360.00,368.00 365.92,368.00 371.84,368.00 377.76,368.00 383.68,368.00 389.60,368.00 395.52,368.00 401.44,368.00 407.36,368.00 413.28,368.00 419.20,368.00 425.12,368.00 431.04,368.00 436.96,368.00 442.88,368.00 448.80,368.00 454.72,368.00 460.64,368.00 466.56,368.00 472.48,368.00 478.40,368.00 484.32,368.00 490.24,368.00 496.16,368.00 502.08,368.00 508.00,368.00 513.92,368.00 519.84,368.00 525.76,368.00 531.68,368.00 537.60,368.00 543.52,368.00 549.44,368.00 555.36,368.00 561.28,368.00 567.20,368.00 573.12,368.00 579.04,368.00 584.96,368.00 590.88,368.00 596.80,368.00 602.72,368.00 608.64,368.00 614.56,368.00 620.48,368.00 626.40,368.00 632.32,368.00 638.24,368.00 644.16,368.00 650.08,368.00 656.00,368.00" fill="none" stroke="#dc2626" stroke-width="2.2" stroke-dasharray="5 3" stroke-linejoin="round"/>
<circle cx="182.40" cy="261.52" r="4.5" fill="#059669" stroke="var(--bg)" stroke-width="1.5"/>
<text x="190.40" y="254.52" font-size="11" fill="#059669">chosen</text>
<line x1="506.00" y1="54.00" x2="524.00" y2="54.00" stroke="#2563eb" stroke-width="2.5"/>
<text x="530.00" y="58.00" font-size="11" fill="var(--fg)">recall (fraud caught)</text>
<line x1="506.00" y1="70.00" x2="524.00" y2="70.00" stroke="#dc2626" stroke-width="2.5" stroke-dasharray="5 3"/>
<text x="530.00" y="74.00" font-size="11" fill="var(--fg)">FP/1k legit (max 1000)</text>
<text x="360.0" y="410" font-size="11" text-anchor="middle" fill="var(--muted)">threshold (tau)</text>
</svg>
